<svg xmlns="http://www.w3.org/2000/svg" width="86.397" height="24.593" viewBox="0 0 86.397 24.593">
  <g id="Group_1" data-name="Group 1" transform="translate(-67 -405.467)">
    <g id="Group_1-2" data-name="Group 1" transform="translate(67 405.467)">
      <path id="Path_1" data-name="Path 1" d="M545.723,80.982a6.119,6.119,0,0,0-1.037-2.183,5.482,5.482,0,0,0-1.9-1.56,6.191,6.191,0,0,0-2.84-.6,5.633,5.633,0,0,0-1.644.235,7.125,7.125,0,0,0-1.413.6,4.832,4.832,0,0,0-1.151.9q-.181.193-.338.391V77.081h-5.626V93.492H535.6V84.618a4.47,4.47,0,0,1,.166-1.216,3.128,3.128,0,0,1,.483-1.011,2.243,2.243,0,0,1,.782-.666,2.4,2.4,0,0,1,1.1-.24,2.025,2.025,0,0,1,1.026.232,1.623,1.623,0,0,1,.616.629,3.277,3.277,0,0,1,.338.984,6.763,6.763,0,0,1,.107,1.225v8.937h5.817V83.407a9.76,9.76,0,0,0-.312-2.425" transform="translate(-459.639 -69.411)" fill="#22387d"/>
      <path id="Path_2" data-name="Path 2" d="M522.776,85.289a3.488,3.488,0,1,1-3.488-3.479,3.483,3.483,0,0,1,3.488,3.479m-3.488-8.716a8.716,8.716,0,1,0,8.735,8.716,8.725,8.725,0,0,0-8.735-8.716" transform="translate(-460.093 -69.412)" fill="#22387d"/>
      <path id="Path_3" data-name="Path 3" d="M503.836,88.77a3.48,3.48,0,1,1,2.912-5.393l3.481-4.023a8.716,8.716,0,1,0-.037,11.91l-3.4-4.138a3.486,3.486,0,0,1-2.958,1.643" transform="translate(-460.459 -69.412)" fill="#22387d"/>
      <path id="Path_4" data-name="Path 4" d="M470.971,70.537l-9.712,24.082H467.8L469.461,90h8.368l1.756,4.617h6.665l-9.613-24.082Zm5.153,14.345H471.23l2.474-6.95Z" transform="translate(-461.259 -70.537)" fill="#22387d"/>
      <rect id="Rectangle_1" data-name="Rectangle 1" width="5.881" height="24.082" transform="translate(26.59 0)" fill="#22387d"/>
    </g>
  </g>
</svg>
