<svg xmlns="http://www.w3.org/2000/svg" width="49.061" height="49.061" viewBox="0 0 49.061 49.061">
  <g id="image36" transform="translate(0 49.061) rotate(-90)">
    <g id="Group_207" data-name="Group 207">
      <path id="Path_161" data-name="Path 161" d="M24.53,0a24.53,24.53,0,1,0,24.53,24.53A24.558,24.558,0,0,0,24.53,0Zm9.622,21.887a2.043,2.043,0,0,1-2.891,0L26.574,17.2V36.8a2.044,2.044,0,1,1-4.088,0V17.2L17.8,21.887A2.044,2.044,0,0,1,14.908,19l8.175-8.175a2.025,2.025,0,0,1,.666-.444,2.046,2.046,0,0,1,1.562,0,2.025,2.025,0,0,1,.666.444L34.152,19A2.042,2.042,0,0,1,34.152,21.887Z" fill="#003493"/>
    </g>
  </g>
</svg>
