<svg width="44" height="44" viewBox="0 0 44 44" fill="none" xmlns="http://www.w3.org/2000/svg">
    <path d="M23.2552 0.00223381C22.9279 -0.017345 22.6061 0.0923785 22.359 0.307773C22.1119 0.523168 21.9592 0.827001 21.934 1.15384C21.9087 1.48067 22.0128 1.80436 22.2238 2.0552C22.4349 2.30603 22.736 2.46394 23.0624 2.49491C27.0899 2.82939 30.9096 4.42453 33.9788 7.05372C37.048 9.6829 39.2107 13.2124 40.1595 17.1408C38.5641 17.2024 36.9873 16.7808 35.6355 15.9312C31.3248 13.911 26.621 12.8684 21.8604 12.878C17.0998 12.8876 12.4002 13.9492 8.0977 15.9867C5.40802 17.5342 3.71498 17.0316 3.04367 16.6907C3.97643 13.1299 5.91931 9.91499 8.63806 7.43353C11.3568 4.95208 14.7353 3.31007 18.3662 2.70548C18.6891 2.64617 18.9756 2.46222 19.164 2.19338C19.3523 1.92454 19.4274 1.59239 19.3728 1.2687C19.3183 0.945005 19.1386 0.655755 18.8726 0.46344C18.6066 0.271126 18.2756 0.191188 17.9511 0.240897C-6.02135 4.71451 -5.94533 38.4396 17.949 42.9429C20.8323 43.4289 23.7841 43.3259 26.6266 42.6401C29.469 41.9544 32.1431 40.7001 34.4877 38.9529C36.8322 37.2057 38.7986 35.0018 40.2683 32.474C41.7381 29.9463 42.6806 27.147 43.0392 24.2451C43.3978 21.3432 43.165 18.3988 42.3548 15.5893C41.5446 12.7798 40.1738 10.1635 38.3251 7.89811C36.4764 5.63274 34.188 3.76524 31.598 2.40821C29.008 1.05119 26.17 0.232742 23.2552 0.00223381ZM2.96471 26.1228L6.79642 25.698C7.54659 25.6118 8.3063 25.7224 9.00069 26.0191C9.69508 26.3158 10.3002 26.7882 10.7564 27.3899L14.7115 32.5212C15.1319 33.0781 15.421 33.7228 15.5574 34.4072L16.5931 40.0818C13.2792 39.1895 10.2659 37.4232 7.86844 34.9675C5.47094 32.5119 3.77732 29.4571 2.96471 26.1228ZM19.2258 40.587L18.0135 33.942C17.8033 32.8753 17.3533 31.8704 16.6975 31.0032L12.7388 25.8671C12.0164 24.9286 11.0648 24.1915 9.97543 23.7268C8.88606 23.2621 7.6955 23.0853 6.51808 23.2133L2.53559 23.6544C2.35885 22.1715 2.37157 20.6722 2.57345 19.1925C3.70254 19.5384 4.89497 19.626 6.0625 19.4488C7.23003 19.2716 8.34276 18.8341 9.31835 18.1687C13.2737 16.3626 17.5711 15.4281 21.9193 15.4284C26.2674 15.4287 30.5647 16.3639 34.5198 18.1706C36.1285 19.1399 37.97 19.6546 39.8481 19.6598C41.061 19.3264 40.587 20.7657 40.7088 21.5855C40.7044 22.277 40.6618 22.9677 40.5811 23.6545L36.6011 23.2139C35.4239 23.0843 34.2332 23.2601 33.1437 23.7243C32.0541 24.1884 31.1025 24.9254 30.3804 25.864L26.4131 31.0111C25.7575 31.8809 25.3087 32.8887 25.1008 33.9579L23.891 40.5869C22.3418 40.7775 20.7751 40.7775 19.2258 40.587ZM26.5239 40.0811L27.5569 34.423C27.691 33.7362 27.979 33.0887 28.3992 32.5291L32.3628 27.3869C32.8197 26.7861 33.4251 26.3146 34.1194 26.0186C34.8137 25.7226 35.573 25.6123 36.3228 25.6986L40.1527 26.1229C39.3401 29.4572 37.6465 32.512 35.2489 34.9675C32.8513 37.423 29.8379 39.1892 26.5239 40.0811Z" fill="black"/>
</svg>
