<svg width="63" height="63" viewBox="0 0 63 63" fill="none" xmlns="http://www.w3.org/2000/svg">
    <path d="M12.7969 33.4302H50.2031C50.4642 33.4302 50.7146 33.3265 50.8992 33.1419C51.0838 32.9573 51.1875 32.7069 51.1875 32.4458V8.8208C51.1875 8.55973 51.0838 8.30935 50.8992 8.12474C50.7146 7.94014 50.4642 7.83643 50.2031 7.83643H12.7969C12.5358 7.83643 12.2854 7.94014 12.1008 8.12474C11.9162 8.30935 11.8125 8.55973 11.8125 8.8208V32.4458C11.8125 32.7069 11.9162 32.9573 12.1008 33.1419C12.2854 33.3265 12.5358 33.4302 12.7969 33.4302ZM13.7812 9.80518H49.2188V31.4614H13.7812V9.80518Z" fill="black"/>
    <path d="M60.9807 53.7906L55.125 36.2235V6.85205C55.1241 6.0691 54.8127 5.31848 54.2591 4.76485C53.7055 4.21122 52.9548 3.89981 52.1719 3.89893H10.8281C10.0452 3.89981 9.29455 4.21122 8.74092 4.76485C8.18729 5.31848 7.87588 6.0691 7.875 6.85205V36.2233L2.01932 53.7906C1.98624 53.8911 1.96962 53.9963 1.9701 54.1021H1.96875V56.0708C1.96966 56.8537 2.28109 57.6043 2.83471 58.158C3.38833 58.7116 4.13894 59.023 4.92188 59.0239H58.0781C58.8611 59.023 59.6117 58.7116 60.1653 58.158C60.7189 57.6043 61.0303 56.8537 61.0312 56.0708V54.1021H61.0299C61.0304 53.9963 61.0138 53.8911 60.9807 53.7906ZM10.8281 5.86768H52.1719C52.4329 5.86797 52.6831 5.97177 52.8676 6.15632C53.0522 6.34086 53.156 6.59107 53.1562 6.85205V35.3989H9.84375V6.85205C9.84404 6.59107 9.94785 6.34086 10.1324 6.15632C10.3169 5.97177 10.5671 5.86797 10.8281 5.86768ZM9.56886 37.3677H53.4311L58.6811 53.1177H42.0532L40.7407 49.1802H53.1562C53.3059 49.1802 53.4535 49.1461 53.5879 49.0805C53.7224 49.0149 53.8401 48.9195 53.9322 48.8016C54.0242 48.6836 54.0882 48.5463 54.1192 48.3999C54.1503 48.2536 54.1475 48.1021 54.1112 47.957L52.1425 40.082C52.0892 39.869 51.9663 39.68 51.7933 39.5449C51.6202 39.4098 51.407 39.3364 51.1875 39.3364H11.8125C11.593 39.3364 11.3798 39.4098 11.2067 39.5449C11.0337 39.68 10.9108 39.869 10.8575 40.082L8.88878 47.957C8.85249 48.1021 8.84975 48.2536 8.88077 48.3999C8.9118 48.5463 8.97577 48.6836 9.06783 48.8016C9.15989 48.9195 9.27762 49.0149 9.41207 49.0805C9.54652 49.1461 9.69415 49.1802 9.84375 49.1802H22.2592L20.9466 53.1177H4.31895L9.56886 37.3677ZM51.8955 47.2114H44.0811L43.5889 45.2427H51.4033L51.8955 47.2114ZM32.4844 47.2114V45.2427H41.5597L42.0519 47.2114H32.4844ZM43.0968 43.2739L42.6046 41.3052H50.4191L50.9113 43.2739H43.0968ZM40.5752 41.3052L41.0674 43.2739H32.4844V41.3052H40.5752ZM30.5156 43.2743H21.9325L22.4247 41.3055H30.5156V43.2743ZM19.9032 43.2743H12.0887L12.5809 41.3055H20.3954L19.9032 43.2743ZM11.5966 45.243H19.411L18.9188 47.2118H11.1045L11.5966 45.243ZM21.4403 45.243H30.5156V47.2118H20.9482L21.4403 45.243ZM38.6655 49.1805L39.9781 53.118H23.0221L24.3346 49.1805H38.6655ZM58.0781 57.0555H4.92188C4.66089 57.0553 4.41068 56.9514 4.22614 56.7669C4.0416 56.5824 3.93779 56.3321 3.9375 56.0712V55.0868H59.0625V56.0712C59.0621 56.3321 58.9583 56.5822 58.7737 56.7667C58.5892 56.9511 58.339 57.0549 58.0781 57.0552V57.0555Z" fill="black"/>
</svg>
