<svg width="65" height="65" viewBox="0 0 65 65" fill="none" xmlns="http://www.w3.org/2000/svg">
    <path d="M24.1258 55.2355C24.0642 55.2355 24.0026 55.23 23.942 55.219C23.8108 55.1951 23.6856 55.1455 23.5735 55.0731C23.4615 55.0008 23.3648 54.907 23.2889 54.7973C23.2131 54.6876 23.1596 54.564 23.1316 54.4336C23.1035 54.3032 23.1014 54.1686 23.1254 54.0373C25.1244 43.0899 20.7387 36.6793 20.6948 36.6158C20.5782 36.4496 20.5141 36.2522 20.5108 36.0492C20.5075 35.8461 20.5651 35.6468 20.6762 35.4768C21.3265 34.482 21.7977 31.5979 21.8213 28.4631C21.8513 24.586 21.2186 22.718 20.9253 22.4611C20.56 22.2115 20.1386 22.056 19.6987 22.0086C19.2588 21.9611 18.814 22.023 18.4038 22.1889C18.0913 22.3117 17.8177 22.5164 17.6118 22.7815C17.4058 23.0467 17.2752 23.3624 17.2335 23.6955C17.036 24.9808 16.4243 26.8021 15.7157 28.9108C14.9341 31.2373 14.0483 33.8747 13.6311 36.1182C13.1556 38.8198 12.9273 41.5591 12.9491 44.3021C12.9554 44.5601 12.8631 44.8109 12.6911 45.0034L8.71166 49.4576C8.62281 49.5571 8.51525 49.6381 8.3951 49.696C8.27495 49.7539 8.14457 49.7876 8.0114 49.7951C7.87824 49.8027 7.74489 49.7839 7.61899 49.7399C7.49308 49.6959 7.37707 49.6275 7.27759 49.5386C7.17811 49.4498 7.09711 49.3422 7.0392 49.2221C6.98129 49.1019 6.94761 48.9715 6.94009 48.8384C6.93257 48.7052 6.95135 48.5719 6.99536 48.446C7.03938 48.3201 7.10776 48.2041 7.1966 48.1046L10.9125 43.9441C10.9118 41.1957 11.1532 38.4527 11.6339 35.7467C12.0774 33.3628 12.9874 30.6539 13.7903 28.2641C14.4405 26.3281 15.0547 24.4997 15.2261 23.3865C15.3215 22.7097 15.5928 22.0698 16.0131 21.5308C16.4334 20.9918 16.9878 20.5725 17.621 20.315C18.3533 20.0156 19.1491 19.905 19.9353 19.9932C20.7216 20.0815 21.473 20.3659 22.1207 20.8203C24.5239 22.556 24.2002 32.5152 22.694 35.9846C23.7795 37.8338 26.9624 44.3323 25.1234 54.4037C25.0805 54.6371 24.9572 54.848 24.7749 55C24.5927 55.1519 24.3631 55.2352 24.1258 55.2355Z" fill="black"/>
    <path d="M22.3921 64.3625C22.1929 64.3624 21.9982 64.3037 21.8321 64.1938C21.666 64.0839 21.5359 63.9275 21.4579 63.7442C21.38 63.5609 21.3577 63.3588 21.3938 63.1629C21.4298 62.967 21.5227 62.786 21.6609 62.6425L25.1249 59.0449C25.2416 58.9235 25.3867 58.8331 25.5471 58.7818C25.7074 58.7306 25.8781 58.72 26.0435 58.7512C26.0814 58.7583 30.0299 59.458 33.3967 57.7751C36.9036 56.0217 38.6962 54.7333 39.3998 52.1539C39.4727 51.8965 39.6442 51.6783 39.8771 51.5467C40.11 51.415 40.3854 51.3806 40.6435 51.4508C40.9017 51.521 41.1217 51.6902 41.2558 51.9217C41.3898 52.1532 41.4272 52.4283 41.3597 52.6871C40.4631 55.9737 38.1886 57.649 34.3051 59.5906C31.0894 61.1986 27.5693 60.9883 26.2269 60.8276L23.1236 64.0515C23.029 64.15 22.9154 64.2283 22.7897 64.2818C22.664 64.3352 22.5287 64.3627 22.3921 64.3625Z" fill="black"/>
    <path d="M50.6443 43.9286C50.3808 43.9288 50.1275 43.8266 49.9379 43.6435C49.7484 43.4604 49.6374 43.2108 49.6285 42.9474C49.6196 42.684 49.7134 42.4275 49.8901 42.232C50.0668 42.0365 50.3125 41.9173 50.5755 41.8997L53.3725 41.7074C53.8687 41.663 54.3272 41.4241 54.6481 41.0431C54.969 40.662 55.1263 40.1695 55.0856 39.6729C55.045 39.1764 54.8098 38.716 54.4312 38.3922C54.0526 38.0684 53.5614 37.9073 53.0645 37.944L51.2892 38.0845C51.1559 38.0956 51.0217 38.0803 50.8944 38.0394C50.767 37.9986 50.649 37.9329 50.5471 37.8464C50.4452 37.7598 50.3613 37.6539 50.3004 37.5348C50.2396 37.4157 50.2028 37.2858 50.1922 37.1525C50.1817 37.0191 50.1976 36.885 50.239 36.7579C50.2804 36.6307 50.3465 36.513 50.4336 36.4114C50.5206 36.3099 50.6268 36.2265 50.7462 36.1661C50.8655 36.1057 50.9956 36.0695 51.129 36.0596L52.9043 35.9191C53.936 35.8455 54.9549 36.1826 55.7391 36.857C56.5233 37.5314 57.0091 38.4884 57.0906 39.5195C57.1722 40.5505 56.8428 41.572 56.1744 42.3613C55.506 43.1506 54.5527 43.6437 53.5223 43.7331L50.7149 43.9261C50.6913 43.9279 50.6676 43.9286 50.6443 43.9286Z" fill="black"/>
    <path d="M50.6441 38.0874C50.3806 38.0863 50.1279 37.9828 49.9393 37.7989C49.7507 37.615 49.641 37.365 49.6333 37.1016C49.6255 36.8383 49.7204 36.5823 49.8978 36.3876C50.0753 36.1929 50.3215 36.0748 50.5844 36.0582L52.9236 35.9178C53.4197 35.872 53.8776 35.6321 54.1975 35.2502C54.5175 34.8684 54.6735 34.3756 54.6317 33.8791C54.5898 33.3827 54.3535 32.923 53.9742 32.6C53.5948 32.2771 53.1032 32.1172 52.6065 32.1551L50.8312 32.2956C50.5626 32.3168 50.2966 32.2305 50.0917 32.0556C49.8868 31.8807 49.7597 31.6316 49.7385 31.3631C49.7173 31.0945 49.8036 30.8285 49.9784 30.6236C50.1533 30.4187 50.4024 30.2916 50.671 30.2704L52.4465 30.1302C53.4827 30.0483 54.509 30.3814 55.2996 31.0561C56.0902 31.7309 56.5804 32.6921 56.6623 33.7282C56.7442 34.7644 56.4111 35.7906 55.7364 36.5813C55.0616 37.3719 54.1005 37.862 53.0643 37.944L50.705 38.0859C50.6852 38.0859 50.6646 38.0874 50.6441 38.0874Z" fill="black"/>
    <path d="M50.7503 32.2987C50.4876 32.2989 50.2352 32.1973 50.0459 32.0153C49.8565 31.8334 49.745 31.5851 49.7348 31.3227C49.7245 31.0603 49.8163 30.8042 49.9909 30.608C50.1655 30.4118 50.4092 30.2908 50.671 30.2705L52.4466 30.1304C52.6937 30.1108 52.9346 30.0428 53.1555 29.9302C53.3763 29.8176 53.5728 29.6626 53.7338 29.474C53.8947 29.2855 54.017 29.067 54.0935 28.8312C54.1701 28.5954 54.1994 28.3469 54.1799 28.0997C54.1604 27.8526 54.0924 27.6117 53.9797 27.3909C53.8671 27.17 53.7121 26.9735 53.5236 26.8125C53.335 26.6516 53.1166 26.5294 52.8808 26.4528C52.645 26.3763 52.3964 26.3469 52.1493 26.3664L50.7251 26.4789C50.4573 26.4989 50.1924 26.4121 49.9885 26.2373C49.7845 26.0625 49.6581 25.814 49.637 25.5462C49.6158 25.2785 49.7015 25.0132 49.8754 24.8085C50.0493 24.6038 50.2972 24.4764 50.5649 24.454L51.9891 24.3413C53.0253 24.2594 54.0515 24.5925 54.8421 25.2673C55.6327 25.9421 56.1229 26.9033 56.2048 27.9395C56.2867 28.9757 55.9536 30.002 55.2788 30.7926C54.604 31.5832 53.6428 32.0734 52.6066 32.1553L50.8312 32.2957C50.8041 32.2969 50.7769 32.2987 50.7503 32.2987Z" fill="black"/>
    <path d="M50.6457 24.2242C50.4315 24.2244 50.2228 24.157 50.0492 24.0314C49.8757 23.9059 49.7463 23.7287 49.6795 23.5252C49.6127 23.3217 49.612 23.1023 49.6774 22.8984C49.7428 22.6944 49.871 22.5164 50.0437 22.3897L55.3475 18.4945C55.729 18.1773 55.9703 17.7227 56.0191 17.229C56.068 16.7353 55.9206 16.2422 55.6088 15.8564C55.2969 15.4705 54.8457 15.2229 54.3528 15.1672C53.8598 15.1114 53.3647 15.2519 52.9745 15.5583L51.316 17.0188C51.2167 17.1113 51.0998 17.1829 50.9724 17.2294C50.8449 17.276 50.7094 17.2965 50.5738 17.2898C50.4383 17.2831 50.3055 17.2493 50.1832 17.1904C50.0609 17.1315 49.9517 17.0487 49.862 16.9469C49.7723 16.8451 49.7039 16.7263 49.6609 16.5976C49.6178 16.4689 49.601 16.3329 49.6114 16.1976C49.6218 16.0623 49.6592 15.9304 49.7214 15.8098C49.7836 15.6892 49.8694 15.5823 49.9736 15.4954L51.6494 14.0189C51.6601 14.0093 51.6712 14.0001 51.6824 13.991C52.491 13.3378 53.526 13.0326 54.5597 13.1425C55.0715 13.1969 55.5676 13.3516 56.0196 13.5977C56.4716 13.8439 56.8708 14.1766 57.1942 14.577C57.5176 14.9774 57.759 15.4376 57.9046 15.9312C58.0502 16.4249 58.0971 16.9424 58.0427 17.4543C57.9883 17.9661 57.8336 18.4622 57.5875 18.9142C57.3413 19.3662 57.0086 19.7654 56.6082 20.0888C56.5962 20.0987 56.5841 20.1081 56.5716 20.1175L51.247 24.0276C51.0727 24.1557 50.862 24.2246 50.6457 24.2242Z" fill="black"/>
    <path d="M50.645 44.0512C50.3756 44.0512 50.1173 43.9442 49.9268 43.7538C49.7363 43.5633 49.6293 43.305 49.6293 43.0356V5.10785C49.6293 3.76214 48.3316 2.66882 46.7363 2.66882H25.4336C23.838 2.66882 22.5391 3.76291 22.5391 5.10785V21.6425C22.5391 21.9118 22.4321 22.1702 22.2416 22.3606C22.0511 22.5511 21.7928 22.6581 21.5234 22.6581C21.2541 22.6581 20.9957 22.5511 20.8053 22.3606C20.6148 22.1702 20.5078 21.9118 20.5078 21.6425V5.10785C20.5078 2.64293 22.7168 0.637573 25.4336 0.637573H46.7363C49.4516 0.637573 51.6606 2.64343 51.6606 5.10785V43.0356C51.6606 43.305 51.5536 43.5633 51.3631 43.7538C51.1727 43.9442 50.9143 44.0512 50.645 44.0512Z" fill="black"/>
    <path d="M46.7365 53.2883H24.7812C24.5119 53.2883 24.2536 53.1813 24.0631 52.9909C23.8726 52.8004 23.7656 52.5421 23.7656 52.2727C23.7656 52.0033 23.8726 51.745 24.0631 51.5546C24.2536 51.3641 24.5119 51.2571 24.7812 51.2571H46.7365C48.3318 51.2571 49.6295 50.1625 49.6295 48.817V42.7035C49.6295 42.4341 49.7365 42.1758 49.927 41.9853C50.1175 41.7949 50.3758 41.6879 50.6452 41.6879C50.9145 41.6879 51.1728 41.7949 51.3633 41.9853C51.5538 42.1758 51.6608 42.4341 51.6608 42.7035V48.817C51.6608 51.2825 49.4518 53.2883 46.7365 53.2883Z" fill="black"/>
    <path d="M50.4843 8.14075H21.5977C21.3283 8.14075 21.07 8.03374 20.8795 7.84328C20.689 7.65281 20.582 7.39448 20.582 7.12512C20.582 6.85576 20.689 6.59743 20.8795 6.40697C21.07 6.2165 21.3283 6.1095 21.5977 6.1095H50.4843C50.7537 6.1095 51.012 6.2165 51.2025 6.40697C51.3929 6.59743 51.4999 6.85576 51.4999 7.12512C51.4999 7.39448 51.3929 7.65281 51.2025 7.84328C51.012 8.03374 50.7537 8.14075 50.4843 8.14075Z" fill="black"/>
    <path d="M50.6453 47.5148H25.0063C24.737 47.5148 24.4787 47.4078 24.2882 47.2173C24.0977 47.0268 23.9907 46.7685 23.9907 46.4991C23.9907 46.2298 24.0977 45.9715 24.2882 45.781C24.4787 45.5905 24.737 45.4835 25.0063 45.4835H50.6453C50.9147 45.4835 51.173 45.5905 51.3635 45.781C51.5539 45.9715 51.6609 46.2298 51.6609 46.4991C51.6609 46.7685 51.5539 47.0268 51.3635 47.2173C51.173 47.4078 50.9147 47.5148 50.6453 47.5148Z" fill="black"/>
</svg>
